<svg xmlns="http://www.w3.org/2000/svg" viewBox="0 0 64 64" id="crescent-moon"><path fill="#6e7093" d="M57,33c0,3.31-2.69,6-6,6h-14c-3.31,0-6-2.69-6-6,0-2.36,1.36-4.4,3.34-5.37,.8-.41,1.7-.63,2.66-.63h.08c.48-3.4,3.39-6,6.92-6s6.44,2.6,6.92,6h.08c3.31,0,6,2.69,6,6Z"></path><path fill="#4e5173" d="M40.78,39h-3.78c-3.31,0-6-2.69-6-6,0-2.36,1.36-4.4,3.34-5.37,.82,4.49,3.15,8.47,6.44,11.37Z"></path><path fill="#ffedab" d="M59.73,46.28c-4.65,7.06-12.64,11.72-21.73,11.72-14.36,0-26-11.64-26-26S23.64,6,38,6c.55,0,1.09,.02,1.63,.05-5.26,4.21-8.63,10.69-8.63,17.95,0,12.7,10.3,23,23,23,1.98,0,3.9-.25,5.73-.72Z"></path><path fill="#ffe58a" d="M15 32c0-13.857 10.839-25.177 24.501-25.954-.497-.026-.995-.046-1.501-.046-14.36 0-26 11.64-26 26s11.64 26 26 26c.498 0 .992-.02 1.483-.047-13.653-.786-24.483-12.102-24.483-25.953zM49.95 46.63c-.3 1.91-1.96 3.37-3.95 3.37-2.21 0-4-1.79-4-4 0-.75.21-1.45.57-2.05 2.25 1.3 4.74 2.22 7.38 2.68z"></path><path fill="#ffe58a" d="M28,51c0,1.64-.55,3.13-1.5,4.32-4.26-2.1-7.86-5.34-10.4-9.32,1.26-1.24,2.98-2,4.9-2,3.87,0,7,3.13,7,7Z"></path><path fill="#fec04a" d="M21,44c-.517,0-1.018,.059-1.502,.164,3.148,.685,5.502,3.481,5.502,6.836,0,1.109-.269,2.14-.726,3.065,.722,.45,1.459,.877,2.226,1.255,.95-1.19,1.5-2.68,1.5-4.32,0-3.87-3.13-7-7-7Z"></path><circle cx="21" cy="32" r="3" fill="#ffe58a"></circle><path fill="#8285a0" d="M26,19c0,2.21-1.79,4-4,4H12c-2.21,0-4-1.79-4-4s1.79-4,4-4c0-2.76,2.24-5,5-5s5,2.24,5,5c2.21,0,4,1.79,4,4Z"></path><path fill="#6e7093" d="M11,20c0-2.21,1.79-4,4-4,0-2.751,2.227-4.983,4.975-4.997-.833-.622-1.856-1.003-2.975-1.003-2.76,0-5,2.24-5,5-2.21,0-4,1.79-4,4s1.79,4,4,4h.379c-.838-.733-1.379-1.798-1.379-3Z"></path><polygon fill="#493176" points="14.364 51.05 10.121 55.293 11.536 59.536 7.293 58.121 3.05 62.364 1.636 56.707 3.757 56 3.05 53.879 5.172 53.172 5.879 51.05 8 51.757 8.707 49.636 14.364 51.05"></polygon><polygon fill="#493176" points="59.95 15.364 55.707 11.121 51.464 12.536 52.879 8.293 48.636 4.05 54.293 2.636 55 4.757 57.121 4.05 57.828 6.172 59.95 6.879 59.243 9 61.364 9.707 59.95 15.364"></polygon><path d="M12.058,29.994c.039,.004,.077,.006,.115,.006,.501,0,.934-.376,.992-.886,.073-.641,.173-1.287,.297-1.922,.106-.542-.248-1.067-.79-1.173-.542-.106-1.067,.248-1.173,.79-.134,.687-.242,1.385-.321,2.078-.062,.549,.332,1.044,.88,1.107Z"></path><path d="M59.481 45.312c-1.78.457-3.624.688-5.481.688-9.987 0-18.436-6.692-21.112-15.826.937-1.362 2.456-2.174 4.192-2.174.498 0 .92-.367.99-.86.414-2.93 2.963-5.14 5.93-5.14s5.516 2.209 5.93 5.14c.07.494.572.86 1.07.86 2.757 0 5 2.243 5 5s-2.243 5-5 5h-8.941c-.552 0-1 .448-1 1s.448 1 1 1h8.941c3.86 0 7-3.14 7-7 0-3.584-2.708-6.547-6.249-6.953-.876-3.5-4.073-6.047-7.751-6.047s-6.871 2.544-7.75 6.04c-1.474.156-2.832.778-3.916 1.754-.215-1.233-.334-2.5-.334-3.794 0-6.712 3.009-12.971 8.255-17.169.324-.259.454-.691.327-1.086-.126-.395-.483-.67-.897-.693-.559-.031-1.117-.051-1.685-.051-6.078 0-11.972 2.078-16.721 5.831-1.091-1.119-2.597-1.831-4.279-1.831-2.998 0-5.49 2.21-5.931 5.087-2.314.437-4.069 2.474-4.069 4.913 0 2.757 2.243 5 5 5h10c2.757 0 5-2.243 5-5 0-2.439-1.755-4.476-4.069-4.913-.088-.572-.276-1.106-.514-1.613 4.165-3.327 9.297-5.252 14.628-5.456-4.506 4.483-7.045 10.541-7.045 16.982 0 8.569 4.518 16.1 11.293 20.346-.188.531-.293 1.089-.293 1.654 0 2.757 2.243 5 5 5 2.1 0 3.951-1.323 4.673-3.236 1.088.152 2.198.236 3.327.236 1.144 0 2.284-.081 3.409-.241-4.73 5.828-11.816 9.241-19.409 9.241-3.573 0-6.967-.746-10.039-2.084.674-1.183 1.039-2.514 1.039-3.916 0-4.411-3.589-8-8-8-1.702 0-3.325.537-4.677 1.516-1.963-3.41-3.145-7.339-3.305-11.554-.021-.552-.483-.979-1.037-.962-.552.021-.982.485-.962 1.037.551 14.559 12.402 25.962 26.98 25.962 9.11 0 17.546-4.549 22.565-12.169.228-.345.219-.795-.021-1.131s-.663-.491-1.062-.388zM25 19c0 1.654-1.346 3-3 3H12c-1.654 0-3-1.346-3-3s1.346-3 3-3c.552 0 1-.448 1-1 0-2.206 1.794-4 4-4s4 1.794 4 4c0 .552.448 1 1 1 1.654 0 3 1.346 3 3zm21 30c-1.654 0-3-1.346-3-3 0-.219.035-.43.081-.639 1.744.895 3.609 1.582 5.567 2.029-.508.963-1.514 1.609-2.648 1.609zm-28.593-2.776c1.031-.779 2.275-1.224 3.593-1.224 3.309 0 6 2.691 6 6 0 1.097-.301 2.131-.848 3.043-3.503-1.876-6.499-4.562-8.745-7.819zM14.606 50.08l-5.657-1.414c-.511-.127-1.026.159-1.191.654l-.391 1.172-1.172-.391c-.527-.177-1.091.109-1.265.632l-.549 1.647-1.647.549c-.524.175-.807.741-.632 1.265l.391 1.172-1.172.391c-.496.166-.78.684-.654 1.191l1.414 5.657c.087.349.356.625.703.721.088.024.178.036.267.036.262 0 .517-.103.707-.293l3.806-3.806 3.656 1.219c.36.12.755.025 1.023-.242.268-.268.361-.664.242-1.023l-1.219-3.656 3.806-3.806c.255-.255.353-.627.257-.974s-.372-.616-.721-.703zm-5.192 4.506c-.268.268-.361.664-.242 1.023l.782 2.345-2.345-.782c-.359-.121-.755-.026-1.023.242l-2.994 2.994-.761-3.045 1.243-.414c.524-.175.807-.741.632-1.265l-.391-1.172 1.173-.391c.298-.1.533-.334.632-.632l.391-1.173 1.172.391c.526.176 1.091-.108 1.265-.632l.414-1.243 3.045.761-2.994 2.994zM61.68 8.758l-1.172-.391.391-1.172c.175-.524-.108-1.09-.632-1.265l-1.647-.549-.549-1.647c-.174-.524-.74-.809-1.265-.632l-1.172.391-.391-1.172c-.165-.495-.682-.78-1.191-.654l-5.657 1.414c-.349.087-.625.356-.721.703s.002.719.257.974l3.806 3.806-1.219 3.656c-.12.359-.026.756.242 1.023.267.268.665.36 1.023.242l3.656-1.219 3.806 3.806c.19.19.445.293.707.293.089 0 .179-.012.267-.036.347-.096.616-.372.703-.721l1.414-5.657c.126-.507-.158-1.026-.654-1.191zm-2.272 4.649l-2.994-2.994c-.19-.191-.446-.293-.707-.293-.106 0-.213.017-.316.051l-2.345.782.782-2.345c.12-.359.026-.756-.242-1.023l-2.994-2.994 3.045-.761.414 1.243c.174.523.74.809 1.265.632l1.172-.391.391 1.173c.1.298.334.533.632.632l1.173.391-.391 1.172c-.175.524.108 1.09.632 1.265l1.243.414-.761 3.045z"></path><path d="M25 32c0-2.206-1.794-4-4-4s-4 1.794-4 4 1.794 4 4 4 4-1.794 4-4zm-6 0c0-1.103.897-2 2-2s2 .897 2 2-.897 2-2 2-2-.897-2-2zM2.02 38c0-.552-.448-1-1-1h-.01c-.552 0-.995.448-.995 1s.453 1 1.005 1 1-.448 1-1zM63.02 26h-.01c-.552 0-.995.448-.995 1s.453 1 1.005 1 1-.448 1-1-.448-1-1-1zM54.02 62h-.01c-.552 0-.995.448-.995 1s.453 1 1.005 1 1-.448 1-1-.448-1-1-1zM17.02 2c.552 0 1-.448 1-1s-.448-1-1-1h-.01c-.552 0-.995.448-.995 1s.453 1 1.005 1z"></path></svg>